<?xml version="1.0" standalone="no"?>
<!DOCTYPE svg PUBLIC "-//W3C//DTD SVG 20010904//EN"
 "http://www.w3.org/TR/2001/REC-SVG-20010904/DTD/svg10.dtd">
<svg version="1.0" xmlns="http://www.w3.org/2000/svg"
 width="16.000000pt" height="16.000000pt" viewBox="0 0 16.000000 16.000000"
 preserveAspectRatio="xMidYMid meet">
<metadata>
Created by potrace 1.11, written by Peter Selinger 2001-2013
</metadata>
<g transform="translate(0.000000,16.000000) scale(0.000562,-0.000562)"
fill="#000000" stroke="none">
<path d="M12570 28450 c0 -23 -196 -105 -345 -143 -143 -37 -230 -52 -533 -92
-317 -41 -422 -61 -797 -154 -2232 -552 -4257 -1591 -5960 -3055 -374 -322
-897 -830 -1211 -1176 -1376 -1518 -2381 -3252 -3019 -5210 -236 -725 -480
-1750 -520 -2183 -16 -181 -34 -262 -71 -325 -34 -57 -83 -112 -100 -112 -12
0 -14 -261 -14 -1766 l0 -1765 25 -33 c35 -46 99 -189 129 -287 37 -124 62
-256 96 -519 37 -282 68 -440 159 -801 386 -1527 1006 -2974 1828 -4268 577
-908 1210 -1691 1994 -2466 662 -654 1287 -1164 2059 -1680 544 -364 989 -621
1590 -919 1153 -572 2341 -976 3640 -1236 162 -33 340 -64 395 -70 260 -27
299 -32 352 -51 68 -23 144 -70 177 -110 l25 -29 1707 0 1708 0 76 39 c181 93
351 133 805 186 254 30 352 48 635 115 2402 572 4532 1664 6285 3224 1072 955
1996 2080 2737 3336 251 425 570 1045 771 1496 480 1084 836 2212 1072 3399
33 168 56 312 60 380 4 61 11 127 17 148 13 42 69 113 98 122 20 6 20 23 20
1724 l0 1717 -35 65 c-83 156 -135 373 -190 784 -42 317 -71 463 -166 846
-477 1917 -1301 3667 -2449 5204 -420 562 -782 978 -1309 1505 -515 515 -922
869 -1477 1286 -1232 926 -2634 1656 -4134 2154 -454 151 -896 276 -1363 385
-483 112 -1044 215 -1175 215 -115 0 -177 21 -233 81 l-47 49 -1656 0 c-1078
0 -1656 -3 -1656 -10z m6494 -6670 c291 -41 557 -251 774 -612 138 -230 47 57
1337 -4193 658 -2167 1235 -4064 1281 -4215 47 -151 141 -456 210 -677 165
-535 248 -828 268 -942 21 -122 21 -352 1 -458 -65 -342 -276 -605 -586 -730
-229 -92 -522 -109 -733 -41 -282 90 -514 318 -651 637 -52 123 -290 891
-1974 6373 -314 1021 -652 2117 -752 2435 -260 828 -257 817 -284 938 -45 202
-59 319 -59 515 -1 177 15 355 35 393 6 9 16 17 23 17 20 0 45 33 64 84 14 38
33 59 112 122 293 234 567 356 812 363 26 0 80 -4 122 -9z m-1820 -997 c-3
-60 -7 -116 -9 -127 -7 -32 14 -307 31 -406 27 -163 79 -364 174 -670 445
-1437 1374 -4462 2210 -7195 297 -973 557 -1819 577 -1880 121 -372 240 -582
445 -787 l107 -107 -32 -5 c-18 -3 -131 -10 -252 -16 -121 -5 -607 -30 -1080
-55 -1025 -53 -1510 -77 -4035 -195 -2877 -135 -4288 -204 -5505 -271 -337
-18 -591 -28 -638 -24 -156 13 -259 55 -329 135 -76 85 -110 174 -248 641
-178 600 -392 1301 -740 2424 -160 517 -343 1109 -406 1315 -63 206 -138 443
-167 525 -49 141 -52 156 -52 250 0 103 15 155 63 210 9 11 870 574 1912 1250
3383 2194 5148 3341 6020 3910 470 307 1000 652 1177 766 177 115 366 241 420
280 149 108 214 137 305 138 l58 1 -6 -107z m-10779 -6512 c212 -110 364 -279
471 -521 25 -57 121 -355 228 -711 101 -338 340 -1120 529 -1739 628 -2047
611 -1987 624 -2207 19 -349 -123 -573 -427 -671 -107 -35 -226 -53 -391 -59
l-157 -6 -73 49 c-136 90 -259 233 -342 399 -62 124 -85 191 -223 645 -75 245
-271 884 -436 1420 -528 1716 -679 2212 -708 2326 -79 306 -78 541 5 705 95
186 308 306 688 384 62 13 117 24 124 24 7 1 46 -17 88 -38z m10720 -5461
c180 -34 244 -37 361 -13 145 30 237 -5 288 -109 39 -82 50 -170 43 -353 -31
-798 -369 -1316 -1000 -1534 -360 -124 -477 -129 -2827 -127 -1657 2 -1634 1
-1870 48 -628 123 -1040 531 -1159 1150 -44 230 -52 574 -16 712 23 89 62 152
113 186 57 38 117 46 217 30 139 -22 176 -22 341 4 244 39 319 33 393 -30 60
-52 80 -117 92 -298 15 -246 48 -353 136 -447 98 -105 226 -143 483 -141 91 0
917 2 1835 4 1343 3 1681 7 1725 17 76 18 164 66 205 112 80 89 112 195 125
423 11 193 33 269 95 331 24 24 58 48 77 54 64 18 183 12 343 -19z"/>
</g>
</svg>
